<?xml version="1.0" encoding="utf-8"?>
<!DOCTYPE svg PUBLIC "-//W3C//DTD SVG 1.1//EN" "http://www.w3.org/Graphics/SVG/1.1/DTD/svg11.dtd">
<svg version="1.1" xmlns="http://www.w3.org/2000/svg" xmlns:xlink="http://www.w3.org/1999/xlink" x="0px" y="0px" width="300px"
	 height="150px" viewBox="0 0 300 150" enable-background="new 0 0 300 150" xml:space="preserve">
<g id="dude">
	<g>
		<path fill="#FFFFFF" d="M63.03,37.828C62.292,24.545,51.291,14,37.823,14c-13.945,0-25.25,11.305-25.25,25.25
			c0,1.199,0.089,2.375,0.25,3.529c-1.728,1.325-2.848,3.404-2.848,5.751c0,4.004,3.246,7.25,7.25,7.25
			c0.479,0,0.946-0.05,1.399-0.138c0.787,0.92,1.638,1.783,2.547,2.581c-3.184,2.743-5.141,7.7-5.099,11.526
			c-0.062,5.719,4.163,6.863,10.25,6.92c1.978-0.018,3.753-0.156,5.255-0.523c0.117,7.324,5.724,8.812,13.745,8.887
			c8.166-0.076,13.833-1.611,13.751-9.283c0.057-5.211-2.651-11.986-7.039-15.629c3.12-2.129,5.734-4.941,7.636-8.219
			c0.659,0.197,1.356,0.307,2.079,0.307c4.004,0,7.25-3.246,7.25-7.25C69,41.393,66.422,38.434,63.03,37.828z M17.547,52.572
			c-0.445,0-0.875-0.064-1.285-0.176c-2.098-0.565-3.643-2.477-3.643-4.752c0-0.896,0.243-1.734,0.662-2.459
			c0.852-1.475,2.441-2.469,4.267-2.469c2.722,0,4.928,2.205,4.928,4.928C22.476,50.365,20.269,52.572,17.547,52.572z
			 M19.605,66.512c-0.013-2.463,1.286-5.251,3.303-6.891c3.062,2.246,6.649,3.814,10.543,4.494c0.244,0.734,0.4,1.479,0.454,2.202
			c-0.709,1.438-1.27,2.946-1.664,4.446c-1.285,1.012-3.206,1.424-5.44,1.377C22.712,72.004,19.585,70.386,19.605,66.512z
			 M56.478,72.432c0.024,5.198-3.996,6.932-9.476,6.578c-5.475-0.425-9.737-2.791-9.708-7.988c-0.012-2.227,0.786-4.619,2.141-6.578
			c1.764-2.551,4.471-4.367,7.568-4.127c1.128,0.072,2.193,0.416,3.175,0.953C53.964,63.343,56.497,68.361,56.478,72.432z
			 M42.073,57c-10.494,0-19-8.506-19-19c0-10.493,8.506-19,19-19c10.407,0,18.855,8.369,18.994,18.743
			c0.001,0.086,0.006,0.171,0.006,0.257c0,0.424-0.019,0.842-0.046,1.258c-0.195,2.986-1.081,5.783-2.498,8.234
			c-0.541,0.936-1.156,1.823-1.843,2.649C53.202,54.332,47.949,57,42.073,57z M62.072,49c-0.314,0-0.621-0.032-0.918-0.088
			c1.234-2.977,1.918-6.238,1.918-9.662c0,0,0-0.002,0-0.004C65.314,39.709,67,41.693,67,44.072C67,46.794,64.794,49,62.072,49z"/>
		<path fill="#FFFFFF" d="M37.45,29.112c-1.308,0.449-2.002,1.885-1.702,3.234c0.894,3.975,0.894,8.1,0,12.075
			c-0.3,1.351,0.395,2.785,1.702,3.235c1.303,0.449,2.807-0.492,3.176-2.138c1.057-4.698,1.057-9.573,0-14.271
			C40.257,29.603,38.753,28.662,37.45,29.112z"/>
		<path fill="#FFFFFF" d="M45.45,29.112c-1.307,0.449-2.002,1.885-1.702,3.234c0.895,3.975,0.895,8.1,0,12.075
			c-0.3,1.351,0.396,2.786,1.702,3.235c1.304,0.449,2.807-0.492,3.176-2.138c1.058-4.698,1.058-9.573,0-14.271
			C48.256,29.603,46.753,28.662,45.45,29.112z"/>
	</g>
</g>
<g id="Layer_3">
	<g>
		<g>
			<g>
				<g>
					<path fill="#8DA6F0" d="M152.545,17.965c0,0,6.111-6.766,10.344-9.569c1.349-0.892,11.378-6.17,17.819,11.995
						c3.523,9.945,3.583,17.354-4.427,20.514c-4.796,1.893-3.082,5.436-3.082,5.436"/>
					<path fill="#333333" d="M162.304,7.572c-4.294,2.844-10.288,9.456-10.541,9.735c-0.375,0.416-0.331,1.048,0.101,1.409
						c0.43,0.361,1.084,0.32,1.46-0.096c0.061-0.068,6.076-6.704,10.152-9.401c0.122-0.083,3.095-2.007,6.716-0.849
						c3.808,1.218,7.106,5.486,9.537,12.343c3.869,10.917,2.721,16.68-3.838,19.266c-1.892,0.748-3.138,1.83-3.702,3.221
						c-0.744,1.834,0.04,3.491,0.074,3.562c0.239,0.497,0.847,0.708,1.363,0.48c0.518-0.226,0.747-0.815,0.517-1.316
						c-0.004-0.01-0.446-0.992-0.015-2.022c0.354-0.85,1.211-1.55,2.546-2.075c9.896-3.905,7.876-13.682,5.013-21.763
						C179,12.49,175.353,7.918,170.844,6.476C166.336,5.033,162.702,7.31,162.304,7.572z"/>
				</g>
				<g>
					<g>
						<path fill="#8DA6F0" enable-background="new    " d="M235.064,21.339l12.39,3.35c1.04,0.281,1.696,1.198,1.467,2.046l0,0
							c-0.23,0.85-1.258,1.311-2.298,1.029l-9.726-2.63L235.064,21.339z"/>
						<path fill="#333333" d="M233.188,19.797l2.982,6.175l10.192,2.756c1.589,0.43,3.184-0.344,3.557-1.724
							c0.373-1.379-0.615-2.85-2.204-3.279L233.188,19.797z M247.194,25.652c0.521,0.141,0.8,0.541,0.727,0.812
							c-0.073,0.271-0.517,0.477-1.037,0.336c0,0-8.41-2.274-9.258-2.503c-0.137-0.282-0.341-0.71-0.684-1.417
							C239.87,23.672,247.194,25.652,247.194,25.652z"/>
					</g>
					<g>
						<path fill="#8DA6F0" enable-background="new    " d="M252.255,22.15c1.923-0.351,3.861,0.386,4.332,1.647
							c0.467,1.262-0.71,2.566-2.634,2.92c-1.919,0.352-6.642,0.127-7.111-1.138C246.371,24.319,250.335,22.503,252.255,22.15z"/>
						<path fill="#333333" d="M252.046,21.168L252.046,21.168c-1.607,0.292-5.089,1.669-6.009,3.253l-0.166,1.483
							c0.85,2.293,6.837,2.063,8.291,1.798c1.448-0.268,2.608-0.988,3.184-1.979c0.412-0.707,0.487-1.507,0.211-2.249
							C256.907,21.735,254.488,20.722,252.046,21.168z M252.463,23.134L252.463,23.134c1.492-0.271,2.895,0.298,3.152,0.989
							c0.07,0.192,0.047,0.386-0.073,0.593c-0.216,0.373-0.802,0.836-1.801,1.019c-1.854,0.339-4.896,0.009-5.736-0.456
							C248.54,24.621,250.818,23.436,252.463,23.134z"/>
					</g>
					<g>
						<path fill="#8DA6F0" enable-background="new    " d="M253.595,29.208c1.662,1.104,2.297,2.789,1.427,3.771
							c-0.875,0.98-2.927,0.879-4.586-0.227c-1.658-1.102-4.703-4.386-3.831-5.365C247.48,26.404,251.938,28.105,253.595,29.208z"/>
						<path fill="#333333" d="M245.818,26.728l-0.378,1.397c0.262,1.823,3.018,4.517,4.423,5.452
							c2.111,1.406,4.724,1.435,5.944,0.066c0.261-0.295,0.444-0.639,0.545-1.01c0.095-0.352,0.116-0.725,0.061-1.11
							c-0.167-1.158-0.986-2.301-2.246-3.137C252.911,27.549,247.427,24.917,245.818,26.728z M253.021,30.028L253.021,30.028
							c0.893,0.596,1.282,1.288,1.347,1.738c0.049,0.346-0.09,0.501-0.136,0.553c-0.463,0.521-1.942,0.464-3.224-0.388
							c-1.466-0.974-3.223-3.071-3.442-3.88C248.392,28.004,251.418,28.964,253.021,30.028z M254.169,28.387h-0.002H254.169z"/>
					</g>
					<g>
						<path fill="#8DA6F0" enable-background="new    " d="M254.806,25.785c2.715,0.716,4.659,2.29,4.338,3.517
							c-0.318,1.229-2.774,1.644-5.49,0.928c-2.711-0.713-8.587-3.319-8.269-4.547C245.704,24.455,252.095,25.074,254.806,25.785z"
							/>
						<path fill="#333333" d="M255.061,24.821L255.061,24.821c-1.974-0.52-8.008-1.406-9.904-0.343l-0.772,0.944
							c-0.738,2.842,8.918,5.746,9.016,5.773c2.186,0.574,4.318,0.496,5.569-0.206c0.619-0.347,1.025-0.84,1.177-1.428
							C260.627,27.72,258.49,25.724,255.061,24.821z M258.142,29.042c-0.013,0.046-0.08,0.126-0.234,0.212
							c-0.62,0.349-2.138,0.501-4,0.011c-2.329-0.613-5.833-2.238-7.089-3.205c1.568-0.228,5.41,0.081,7.735,0.693l-0.001-0.001
							C257.124,27.429,258.227,28.717,258.142,29.042z"/>
					</g>
				</g>
				<g>
					<g>
						<path fill="#8DA6F0" d="M190.033,53.558v25.639c0,6.322-6.273,8.588-14.01,8.588l0,0c-7.738,0-14.008-2.266-14.008-8.588
							v-25.94"/>
						<path fill="#333333" d="M160.98,53.256v25.94c0,6.184,5.341,9.587,15.043,9.587s15.044-3.403,15.044-9.587V53.558
							c0-0.552-0.463-0.999-1.035-0.999c-0.572,0-1.035,0.447-1.035,0.999v25.639c0,6.273-7.055,7.59-12.975,7.59
							c-5.918,0-12.973-1.316-12.973-7.59v-25.94c0-0.551-0.464-0.998-1.035-0.998S160.98,52.705,160.98,53.256z"/>
					</g>
					<g>
						<path fill="#8DA6F0" enable-background="new    " d="M168.155,79.166c0,2.558-1.483,4.637-3.312,4.637
							s-3.312-2.079-3.312-4.637c0-2.562,1.483-8.347,3.312-8.347S168.155,76.604,168.155,79.166z"/>
						<path fill="#333333" d="M161.184,79.166c0,2.74,1.641,4.971,3.658,4.971c2.017,0,3.657-2.23,3.657-4.971
							c0-2.503-1.457-8.682-3.657-8.682C162.643,70.484,161.184,76.663,161.184,79.166z M161.875,79.166
							c0-2.786,1.571-8.015,2.967-8.015c1.396,0,2.968,5.229,2.968,8.015c0,2.374-1.331,4.305-2.968,4.305
							C163.207,83.471,161.875,81.54,161.875,79.166z"/>
					</g>
					<path fill="#CFD4E5" d="M162.422,79.629c0-2.464,1.793-6.9,3.102-6.9c0.125,0,0.248,0.063,0.367,0.158
						c-0.327-0.781-0.702-1.298-1.099-1.298C163.481,71.589,162.422,77.165,162.422,79.629"/>
					<g>
						<path fill="#8DA6F0" enable-background="new    " d="M169.717,81.63c0,1.976-1.179,3.578-2.634,3.578
							c-1.456,0-2.637-1.603-2.637-3.578c0-1.982,1.181-6.445,2.637-6.445C168.538,75.185,169.717,79.647,169.717,81.63z"/>
						<path fill="#333333" d="M164.102,81.63c0,2.155,1.337,3.911,2.981,3.911c1.642,0,2.979-1.756,2.979-3.911
							c0-1.688-1.057-6.778-2.979-6.778C165.158,74.852,164.102,79.942,164.102,81.63z M164.792,81.63
							c0-2.072,1.238-6.112,2.292-6.112c1.054,0,2.289,4.04,2.289,6.112c0,1.789-1.027,3.245-2.289,3.245
							C165.819,84.875,164.792,83.419,164.792,81.63z"/>
					</g>
					<path fill="#CFD4E5" d="M165.554,80.452c-0.132-1.408,1.103-3.745,2.065-3.916c0.09-0.012,0.183,0.01,0.275,0.048
						c-0.282-0.404-0.602-0.728-0.875-0.601C166.067,76.438,165.422,79.049,165.554,80.452"/>
				</g>
				<g>
					<g>
						<path fill="#8DA6F0" d="M232.891,53.871V79.51c0,6.322-6.272,8.587-14.009,8.587l0,0c-7.737,0-14.01-2.265-14.01-8.587V53.568
							"/>
						<path fill="#333333" d="M203.836,53.568V79.51c0,6.181,5.343,9.585,15.045,9.585c4.367,0,7.869-0.688,10.409-2.048
							c3.032-1.623,4.636-4.229,4.636-7.537V53.871c0-0.552-0.463-0.998-1.035-0.998c-0.571,0-1.034,0.446-1.034,0.998V79.51
							c0,2.611-1.169,4.506-3.572,5.792c-2.198,1.175-5.449,1.796-9.403,1.796c-5.919,0-12.974-1.317-12.974-7.588V53.568
							c0-0.552-0.465-0.999-1.036-0.999S203.836,53.017,203.836,53.568z"/>
					</g>
					<g>
						<path fill="#8DA6F0" enable-background="new    " d="M211.013,79.479c0,2.557-1.482,4.64-3.311,4.64
							c-1.833,0-3.314-2.083-3.314-4.64c0-2.562,1.482-8.347,3.314-8.347C209.531,71.132,211.013,76.917,211.013,79.479z"/>
						<path fill="#333333" d="M205.03,74.242c-0.582,1.711-0.988,3.865-0.988,5.236c0,2.74,1.642,4.972,3.66,4.972
							c2.016,0,3.656-2.231,3.656-4.972c0-2.504-1.457-8.679-3.656-8.679C206.458,70.8,205.562,72.67,205.03,74.242z
							 M204.731,79.479c0-1.309,0.393-3.377,0.954-5.029c0.625-1.841,1.397-2.985,2.016-2.985c1.395,0,2.966,5.229,2.966,8.015
							c0,2.375-1.331,4.306-2.966,4.306C206.063,83.784,204.731,81.854,204.731,79.479z"/>
					</g>
					<path fill="#CFD4E5" d="M205.282,79.943c0-2.464,1.792-6.903,3.1-6.903c0.126,0,0.249,0.064,0.367,0.159
						c-0.328-0.78-0.702-1.298-1.099-1.298C206.339,71.901,205.282,77.479,205.282,79.943"/>
					<g>
						<path fill="#8DA6F0" enable-background="new    " d="M212.576,81.941c0,1.979-1.178,3.577-2.634,3.577
							c-1.455,0-2.635-1.599-2.635-3.577c0-1.982,1.18-6.445,2.635-6.445C211.398,75.496,212.576,79.959,212.576,81.941z"/>
						<path fill="#333333" d="M206.961,81.941c0,2.158,1.336,3.911,2.98,3.911c1.643,0,2.979-1.753,2.979-3.911
							c0-1.688-1.058-6.777-2.979-6.777C208.018,75.164,206.961,80.254,206.961,81.941z M207.652,81.941
							c0-2.071,1.235-6.111,2.29-6.111c1.053,0,2.289,4.04,2.289,6.111c0,1.789-1.027,3.246-2.289,3.246
							C208.678,85.188,207.652,83.73,207.652,81.941z"/>
					</g>
					<path fill="#CFD4E5" d="M208.414,80.765c-0.134-1.406,1.102-3.743,2.064-3.915c0.091-0.013,0.184,0.008,0.275,0.047
						c-0.282-0.405-0.602-0.728-0.875-0.601C208.925,76.751,208.28,79.36,208.414,80.765"/>
				</g>
				<g>
					<path fill="#8DA6F0" d="M210.119,12.252c0,0-9.059-0.106-42.157,0.99c-33.097,1.097-31.875,12.965-31.927,30.009v40.995
						c0,3.468,3.004,4.866,6.712,4.866c3.707,0,6.716-1.398,6.716-4.866c0,0,0.855-11.714,1.593-18.84
						c1.651-25.887,32.901,4.257,55.617,2.851c20.643-1.28,36.899-8.405,36.899-25.338
						C243.572,25.981,232.918,12.252,210.119,12.252z"/>
					<path fill="#333333" d="M167.927,12.245c-32.914,1.09-32.919,12.88-32.924,29.198L135,43.247v40.999
						c0,3.672,2.896,5.867,7.747,5.867c4.855,0,7.751-2.195,7.751-5.867c0.006-0.048,0.859-11.712,1.588-18.741
						c0.293-4.587,1.508-7.432,3.715-8.737c4.434-2.619,13.061,0.998,22.199,4.828c9.193,3.854,19.612,8.223,28.738,7.657
						c24.419-1.515,37.868-10.867,37.868-26.334c0-9.065-2.928-16.802-8.465-22.377c-6.037-6.076-15.036-9.288-26.023-9.288h0.012
						C210.042,11.252,200.669,11.158,167.927,12.245z M137.07,84.246V43.251c0,0.004,0.002-1.807,0.002-1.807
						c0.005-15.766,0.01-26.181,30.924-27.205c32.67-1.081,42.019-0.99,42.11-0.989h0.012c10.409,0,18.891,3,24.528,8.675
						c5.162,5.193,7.89,12.453,7.89,20.994c0,18.276-19.54,23.325-35.93,24.341c-8.627,0.533-18.803-3.731-27.781-7.496
						c-10.063-4.218-18.754-7.861-24.105-4.699c-2.826,1.67-4.363,5.033-4.697,10.28c-0.727,7.02-1.585,18.713-1.593,18.832
						c-0.002,3.435-3.562,3.938-5.684,3.938C140.627,88.114,137.07,87.611,137.07,84.246z"/>
				</g>
				<path fill="#CFD4E5" d="M210.107,13.38c0,0-8.862-0.104-41.247,0.969c-32.383,1.073-31.886,13.005-31.886,29.046l0.004,0.397
					c-0.016-0.01-0.033-0.017-0.049-0.025l0.008,0.608c0.036,3.85-0.506,37.478,1.618,39.496
					c-0.667-1.488,0.792-34.066,0.774-36.114l-0.02-1.198c0-0.57,0-1.133,0-1.692c-0.001-0.001-0.003-0.001-0.005-0.002
					c0.014-15.066,0.807-26.102,31.887-27.131c32.383-1.073,41.248-0.969,41.248-0.969c12.384,0,20.91,4.181,26.219,10.705
					C233.771,19.027,224.518,13.38,210.107,13.38z"/>
				<g>
					<path fill="#8DA6F0" d="M241.701,52.773v30.092c0,6.321-6.274,8.59-14.011,8.59l0,0c-7.738,0-14.008-2.269-14.008-8.59v-17.29"
						/>
					<path fill="#333333" d="M240.664,52.773v30.092c0,6.275-7.056,7.592-12.975,7.592c-5.917,0-12.973-1.316-12.973-7.592v-17.29
						c0-0.551-0.463-0.999-1.035-0.999c-0.571,0-1.035,0.448-1.035,0.999v17.29c0,6.184,5.342,9.59,15.042,9.59
						c9.702,0,15.045-3.406,15.045-9.59V52.773c0-0.552-0.463-0.998-1.034-0.998C241.128,51.775,240.664,52.222,240.664,52.773z"/>
					<g>
						<path fill="#8DA6F0" enable-background="new    " d="M222.494,84.636c0,2.376-1.979,4.305-4.421,4.305
							c-2.442,0-4.421-1.929-4.421-4.305c0-2.382,1.979-7.757,4.421-7.757C220.515,76.879,222.494,82.254,222.494,84.636z"/>
						<path fill="#333333" d="M213.308,84.636c0,2.558,2.137,4.639,4.766,4.639s4.767-2.081,4.767-4.639
							c0-2.413-2.012-8.09-4.767-8.09C215.32,76.546,213.308,82.223,213.308,84.636z M213.998,84.636c0-2.32,1.97-7.423,4.076-7.423
							c2.106,0,4.077,5.103,4.077,7.423c0,2.19-1.829,3.974-4.077,3.974C215.826,88.609,213.998,86.826,213.998,84.636z"/>
					</g>
					<path fill="#CFD4E5" d="M214.407,84.919c0-2.129,2.475-5.955,4.286-5.955c0.173,0,0.34,0.055,0.507,0.137
						c-0.456-0.673-0.97-1.12-1.518-1.12C215.871,77.98,214.407,82.793,214.407,84.919"/>
					<g>
						<path fill="#8DA6F0" enable-background="new    " d="M226.097,84.971c0,3.139-2.049,5.69-4.578,5.69
							c-2.532,0-4.58-2.552-4.58-5.69c0-3.141,2.048-10.231,4.58-10.231C224.048,74.739,226.097,81.83,226.097,84.971z"/>
						<path fill="#333333" d="M216.593,84.971c0,3.32,2.209,6.021,4.925,6.021c2.714,0,4.922-2.701,4.922-6.021
							c0-3.151-2.078-10.565-4.922-10.565C218.672,74.405,216.593,81.819,216.593,84.971z M217.283,84.971
							c0-3.094,2.048-9.899,4.235-9.899c2.187,0,4.233,6.806,4.233,9.899c0,2.953-1.899,5.357-4.233,5.357
							C219.182,90.328,217.283,87.924,217.283,84.971z"/>
					</g>
					<path fill="#CFD4E5" d="M218.173,85.541c0-3.024,2.478-8.46,4.286-8.46c0.173,0,0.342,0.078,0.507,0.193
						c-0.453-0.96-0.971-1.591-1.518-1.591C219.637,75.684,218.173,82.52,218.173,85.541"/>
					<g>
						<path fill="#8DA6F0" enable-background="new    " d="M228.498,86.66c0,2.222-1.474,4.021-3.294,4.021
							c-1.819,0-3.294-1.8-3.294-4.021c0-2.23,1.475-7.25,3.294-7.25C227.024,79.41,228.498,84.43,228.498,86.66z"/>
						<path fill="#333333" d="M221.564,86.66c0,2.401,1.632,4.354,3.64,4.354c2.007,0,3.639-1.952,3.639-4.354
							c0-2.185-1.45-7.582-3.639-7.582S221.564,84.476,221.564,86.66z M222.254,86.66c0-2.404,1.563-6.916,2.95-6.916
							s2.95,4.512,2.95,6.916c0,2.034-1.325,3.688-2.95,3.688C223.579,90.349,222.254,88.694,222.254,86.66z"/>
					</g>
					<path fill="#CFD4E5" d="M223.296,85.335c-0.167-1.586,1.377-4.214,2.58-4.404c0.113-0.018,0.229,0.007,0.345,0.052
						c-0.354-0.458-0.751-0.817-1.094-0.676C223.934,80.818,223.129,83.754,223.296,85.335"/>
				</g>
				<path fill="#333333" d="M146.062,32.569c0.09,0.609,0.662,1.004,1.28,0.879c0.618-0.123,1.044-0.72,0.954-1.328
					c-0.515-3.476,2.26-7.326,4.406-8.323c0.428-0.198,0.776-0.643,0.773-0.993c0-0.348-0.347-0.471-0.775-0.272
					C149.761,23.897,145.376,27.966,146.062,32.569z"/>
				<g>
					<g>
						<path fill="#333333" d="M157.81,34.857c-0.193-2.02-2.194-3.264-4.476-2.783c-2.278,0.482-3.971,2.505-3.779,4.523
							c0.192,2.016,2.194,3.262,4.473,2.784C156.308,38.898,158.001,36.875,157.81,34.857z M153.834,38.965
							c-1.922,0.405-3.618-0.671-3.784-2.401c-0.166-1.734,1.259-3.467,3.182-3.876c1.924-0.406,3.619,0.666,3.787,2.401
							C157.184,36.822,155.759,38.554,153.834,38.965z"/>
						<path fill="#FFFFFF" d="M156.897,35.229c0.146,1.523-1.101,3.05-2.784,3.406c-1.69,0.359-3.172-0.589-3.323-2.112
							c-0.145-1.524,1.102-3.049,2.786-3.405C155.265,32.758,156.751,33.703,156.897,35.229z"/>
						<g>
							<path fill="#333333" d="M156.65,35.243c-0.456-1.161-1.667-1.834-2.693-1.511c-0.55,0.171-0.927,0.596-1.103,1.128
								l1.436,0.71l-1.318,0.951c0.488,1.096,1.644,1.725,2.641,1.412C156.644,37.605,157.106,36.404,156.65,35.243z"/>
							<path fill="#FFFFFF" stroke="#FFFFFF" d="M155.594,34.746c0.256-0.037,0.556,0.271,0.666,0.701
								c0.11,0.424-0.008,0.802-0.27,0.842c-0.258,0.038-0.558-0.273-0.669-0.701C155.213,35.164,155.334,34.788,155.594,34.746z"/>
						</g>
					</g>
					<path fill="#333333" d="M151.419,32.996c-1.799,1.388-2.368,3.405-1.152,4.548c-0.105-0.045,0.124,0.249,0.027,0.194
						c-1.914-1.061-2.234-4.212-0.472-6.066c1.513-1.593,6.052-2.775,6.019-2.16c-0.188,0.704-1.517,1.599-3.167,2.571
						C152.143,32.385,151.76,32.733,151.419,32.996z"/>
				</g>
			</g>
			<g>
				<g>
					<path fill="#333333" d="M181.694,53.929c-0.38,0-0.729-0.159-0.957-0.436c-0.228-0.276-0.316-0.648-0.243-1.021l3.705-19.065
						c0.139-0.71,0.813-1.267,1.535-1.267h6.951c0.499,0,1.315,0.062,1.82,0.139c0,0,0.001,0,0.001,0
						c0.125,0,3.698,0.13,5.187,2.125c1.265,1.697,1.648,3.71,1.172,6.154c-0.205,1.059-0.56,2.045-1.054,2.932
						c-0.49,0.88-1.142,1.698-1.939,2.432c-0.956,0.894-2.034,1.539-3.199,1.917c-1.147,0.374-2.62,0.564-4.377,0.564h-3
						c-0.244,0-0.508,0.218-0.555,0.457l-0.738,3.805c-0.14,0.71-0.815,1.265-1.537,1.265H181.694z M189.624,36.421
						c-0.244,0-0.507,0.218-0.553,0.456l-1.356,6.979c-0.011,0.057-0.014,0.135,0.034,0.193c0.038,0.047,0.104,0.072,0.186,0.072
						h0.998c0.457,0,1.234-0.042,1.696-0.092c0.605-0.065,2.314-0.344,2.954-0.836c0.789-0.607,1.336-1.666,1.625-3.146
						c0.266-1.374,0.168-2.329-0.292-2.84c-0.465-0.515-1.525-0.787-3.068-0.787H189.624z"/>
					<path fill="#FFFFFF" d="M192.685,32.64c0.483,0,1.268,0.061,1.745,0.133c0,0,3.494,0.097,4.863,1.93
						c1.09,1.463,1.562,3.296,1.082,5.76c-0.196,1.015-0.531,1.943-1,2.783c-0.469,0.843-1.084,1.611-1.841,2.308
						c-0.906,0.847-1.909,1.451-3.015,1.81c-1.104,0.36-2.512,0.54-4.223,0.54h-3c-0.484,0-0.953,0.387-1.045,0.861l-0.738,3.805
						c-0.093,0.473-0.562,0.86-1.046,0.86h-2.772c-0.482,0-0.802-0.388-0.709-0.86l3.705-19.066
						c0.093-0.474,0.562-0.862,1.044-0.862H192.685 M187.934,44.621h0.998c0.482,0,1.269-0.043,1.75-0.095
						c0,0,2.312-0.249,3.205-0.937c0.893-0.688,1.496-1.837,1.81-3.446c0.299-1.544,0.162-2.635-0.411-3.271
						c-0.573-0.635-1.719-0.952-3.439-0.952h-2.224c-0.482,0-0.953,0.388-1.044,0.861l-1.356,6.978
						C187.13,44.233,187.452,44.621,187.934,44.621 M192.685,31.64h-6.951c-0.953,0-1.842,0.733-2.026,1.67l-3.705,19.068
						c-0.102,0.518,0.025,1.04,0.348,1.433c0.323,0.393,0.813,0.618,1.343,0.618h2.772c0.952,0,1.843-0.732,2.027-1.667l0.739-3.808
						c0.007-0.012,0.05-0.047,0.074-0.053l2.99,0.001c1.81,0,3.335-0.198,4.533-0.59c1.234-0.399,2.375-1.082,3.388-2.029
						c0.831-0.764,1.516-1.624,2.032-2.552c0.52-0.932,0.893-1.968,1.108-3.08c0.504-2.589,0.091-4.73-1.262-6.547
						c-1.549-2.074-4.949-2.305-5.574-2.329C193.986,31.698,193.194,31.64,192.685,31.64L192.685,31.64z M188.269,43.621
						l1.292-6.648c0.007-0.012,0.05-0.047,0.074-0.053l2.212,0.001c1.927,0,2.528,0.436,2.697,0.622
						c0.338,0.376,0.399,1.232,0.171,2.41c-0.264,1.355-0.749,2.313-1.438,2.845c-0.455,0.35-1.881,0.645-2.703,0.734
						c-0.448,0.048-1.2,0.089-1.643,0.089H188.269L188.269,43.621z"/>
				</g>
				<g>
					<path fill="#333333" d="M212.833,48.402c-0.38,0-0.729-0.158-0.957-0.435c-0.228-0.276-0.317-0.649-0.245-1.021l1.454-7.478
						c0.088-0.452,0.188-1.205,0.223-1.679c0.021-0.315-0.038-0.758-0.157-0.886c-0.143-0.154-0.576-0.411-1.888-0.411h-2.712
						c-0.243,0-0.507,0.218-0.554,0.457l-1.978,10.187c-0.139,0.71-0.813,1.266-1.536,1.266h-2.738
						c-0.379,0-0.728-0.158-0.956-0.435c-0.228-0.276-0.318-0.648-0.246-1.021l3.706-19.068c0.138-0.709,0.812-1.264,1.534-1.264
						h2.738c0.381,0,0.73,0.159,0.958,0.436c0.227,0.276,0.315,0.647,0.243,1.021l-0.739,3.805
						c-0.011,0.056-0.014,0.135,0.035,0.193c0.038,0.046,0.104,0.071,0.186,0.071h2.246c0.497,0,1.305,0.042,1.801,0.094
						c0.312,0.001,3.483,0.076,4.659,1.392c1.044,1.168,1.364,2.705,0.977,4.698l-1.711,8.813c-0.137,0.709-0.812,1.266-1.536,1.266
						H212.833z"/>
					<path fill="#FFFFFF" d="M208.523,27.114c0.483,0,0.802,0.387,0.709,0.859l-0.739,3.806c-0.092,0.474,0.229,0.86,0.711,0.86
						h2.246c0.482,0,1.27,0.041,1.75,0.091c0,0,3.275,0.038,4.338,1.228c0.865,0.968,1.241,2.303,0.859,4.27l-1.711,8.813
						c-0.091,0.474-0.562,0.861-1.045,0.861h-2.808c-0.483,0-0.803-0.388-0.711-0.861l1.454-7.477
						c0.092-0.474,0.195-1.254,0.231-1.737c0,0,0.064-0.884-0.289-1.264c-0.352-0.381-1.104-0.57-2.254-0.57h-2.712
						c-0.483,0-0.952,0.387-1.045,0.86l-1.978,10.188c-0.093,0.474-0.562,0.861-1.045,0.861h-2.738c-0.483,0-0.802-0.388-0.71-0.861
						l3.706-19.067c0.092-0.473,0.562-0.859,1.043-0.859H208.523 M208.523,26.114h-2.738c-0.953,0-1.842,0.732-2.025,1.668
						l-3.706,19.068c-0.101,0.521,0.027,1.044,0.351,1.436s0.812,0.616,1.341,0.616h2.738c0.953,0,1.843-0.733,2.026-1.669
						l1.978-10.189c0.007-0.011,0.05-0.046,0.074-0.052l2.701,0.001c1.053,0,1.409,0.176,1.497,0.232
						c0.04,0.116,0.06,0.376,0.049,0.529c-0.033,0.448-0.131,1.189-0.215,1.618l-1.454,7.478c-0.101,0.52,0.026,1.043,0.35,1.435
						c0.324,0.393,0.813,0.617,1.343,0.617h2.808c0.956,0,1.846-0.734,2.027-1.672l1.71-8.812c0.419-2.156,0.061-3.833-1.095-5.127
						c-1.262-1.411-4.309-1.548-5.025-1.56c-0.521-0.052-1.303-0.092-1.808-0.092h-1.911l0.674-3.476
						c0.102-0.518-0.025-1.04-0.347-1.432C209.544,26.34,209.054,26.114,208.523,26.114L208.523,26.114z"/>
				</g>
				<g>
					<path fill="#333333" d="M219.338,53.929c-0.381,0-0.73-0.159-0.958-0.437c-0.228-0.276-0.316-0.648-0.243-1.021l3.704-19.065
						c0.138-0.71,0.812-1.267,1.535-1.267h6.951c0.5,0,1.316,0.062,1.82,0.139c0.097,0.001,3.656,0.174,5.181,2.115
						c1.284,1.633,1.67,3.648,1.181,6.164c-0.207,1.062-0.561,2.048-1.054,2.932c-0.496,0.887-1.149,1.705-1.941,2.432
						c-0.953,0.892-2.029,1.538-3.196,1.917c-1.15,0.374-2.623,0.564-4.378,0.564h-3.001c-0.243,0-0.507,0.218-0.553,0.456
						l-0.739,3.806c-0.138,0.709-0.812,1.265-1.536,1.265H219.338z M227.266,36.421c-0.243,0-0.508,0.218-0.555,0.458l-1.355,6.977
						c-0.015,0.079-0.003,0.149,0.035,0.195c0.048,0.058,0.126,0.07,0.184,0.07h0.999c0.459,0,1.236-0.042,1.696-0.092
						c0.605-0.065,2.315-0.344,2.956-0.836c0.788-0.605,1.333-1.664,1.622-3.146c0.267-1.374,0.169-2.33-0.289-2.841
						c-0.465-0.514-1.527-0.786-3.068-0.786H227.266z"/>
					<path fill="#FFFFFF" d="M230.327,32.64c0.483,0,1.268,0.061,1.746,0.133c0,0,3.462,0.147,4.863,1.93
						c1.128,1.436,1.562,3.296,1.083,5.76c-0.197,1.015-0.531,1.943-1,2.783c-0.471,0.843-1.083,1.611-1.842,2.308
						c-0.905,0.847-1.909,1.451-3.013,1.81c-1.106,0.36-2.513,0.54-4.224,0.54h-3.001c-0.481,0-0.952,0.387-1.044,0.861
						l-0.739,3.805c-0.092,0.473-0.564,0.86-1.045,0.86h-2.772c-0.483,0-0.803-0.388-0.71-0.86l3.704-19.066
						c0.092-0.474,0.563-0.862,1.044-0.862H230.327 M225.575,44.621h0.999c0.483,0,1.271-0.043,1.75-0.095
						c0,0,2.312-0.249,3.207-0.937c0.894-0.688,1.495-1.837,1.808-3.446c0.3-1.544,0.163-2.635-0.408-3.271
						c-0.575-0.635-1.721-0.952-3.44-0.952h-2.225c-0.482,0-0.952,0.388-1.045,0.861l-1.355,6.978
						C224.774,44.233,225.092,44.621,225.575,44.621 M230.327,31.64h-6.951c-0.955,0-1.844,0.734-2.026,1.672l-3.703,19.066
						c-0.102,0.518,0.025,1.04,0.348,1.433c0.323,0.393,0.813,0.618,1.344,0.618h2.772c0.955,0,1.845-0.733,2.026-1.67l0.739-3.805
						c0.007-0.012,0.05-0.047,0.074-0.053l2.99,0.001c1.833,0,3.316-0.192,4.533-0.589c1.236-0.401,2.376-1.085,3.386-2.03
						c0.824-0.756,1.51-1.616,2.032-2.551c0.519-0.93,0.892-1.966,1.108-3.08c0.511-2.629,0.081-4.839-1.278-6.568
						c-1.579-2.009-4.953-2.276-5.551-2.308C231.635,31.699,230.838,31.64,230.327,31.64L230.327,31.64z M225.911,43.621
						l1.291-6.648c0.007-0.01,0.051-0.047,0.076-0.053l2.213,0.001c1.927,0,2.529,0.436,2.699,0.623
						c0.335,0.374,0.396,1.23,0.167,2.409c-0.265,1.357-0.748,2.314-1.436,2.844c-0.458,0.353-1.885,0.646-2.704,0.735
						c-0.447,0.048-1.199,0.089-1.643,0.089H225.911L225.911,43.621z"/>
				</g>
			</g>
			<g>
				<path fill="#8DA6F0" d="M162.364,15.352c0,0,8.208-5.643,13.392-7.577c1.652-0.617,13.574-3.767,15.506,16.818
					c1.057,11.271-0.846,19.056-10.088,20.467c-5.531,0.845-4.675,4.967-4.675,4.967"/>
				<path fill="#333333" d="M175.381,6.844c-5.244,1.957-13.278,7.461-13.618,7.695c-0.465,0.319-0.573,0.943-0.241,1.392
					c0.332,0.449,0.979,0.553,1.444,0.232c0.081-0.054,8.161-5.591,13.162-7.458c0.157-0.057,3.837-1.39,7.369,0.727
					c3.677,2.202,6.006,7.477,6.737,15.252c1.165,12.428-1.593,18.226-9.22,19.39c-2.162,0.33-3.736,1.159-4.68,2.469
					c-1.239,1.715-0.866,3.602-0.848,3.681c0.113,0.537,0.651,0.883,1.209,0.78c0.559-0.103,0.925-0.626,0.823-1.165
					c-0.002-0.009-0.208-1.171,0.531-2.176c0.612-0.832,1.719-1.377,3.289-1.617c11.339-1.73,11.813-12.422,10.959-21.541
					c-0.804-8.546-3.398-14.188-7.707-16.769C180.263,5.145,175.869,6.661,175.381,6.844z"/>
			</g>
			<path fill="#CFD4E5" d="M170.76,13.858c9.293-5.812,14.452-2.839,14.452-2.839c-4.041-3.695-8.586-2.471-9.591-2.094
				c-5.167,1.935-15.144,9.082-15.144,9.082s-1.349,2.393,1.339,1.874C161.816,19.882,167.664,15.796,170.76,13.858z"/>
			<g>
				<path fill="#333333" d="M167.406,41.281c-0.081,4.719-1.643,9.015-4.079,11.206c-1.105,0.996-2.338,1.489-3.569,1.429
					c-0.38-0.021-0.703,0.261-0.725,0.628c-0.018,0.369,0.274,0.681,0.655,0.699c1.612,0.082,3.196-0.534,4.582-1.782
					c2.7-2.431,4.431-7.089,4.517-12.159c0.008-0.366-0.295-0.67-0.677-0.676C167.727,40.621,167.414,40.914,167.406,41.281z"/>
				<path fill="#333333" d="M170.542,39.564c-0.757,1.058-1.803,1.612-2.873,1.514c-1.041-0.097-1.973-0.791-2.493-1.861
					c-0.161-0.334-0.574-0.481-0.917-0.33c-0.344,0.151-0.492,0.548-0.329,0.882c0.733,1.512,2.091,2.496,3.63,2.639
					c1.575,0.14,3.076-0.614,4.119-2.075c0.214-0.303,0.132-0.714-0.18-0.929C171.184,39.191,170.757,39.265,170.542,39.564z"/>
			</g>
		</g>
		<g>
			<g id="right_foot_1_">
				<path fill="#333333" d="M170.303,85.21c1.01,4.062,7.087,5.494,10.808,4.487c3.818-0.942,3.854-3.953,2.843-8.017
					c-1.084-4.042-2.575-6.66-6.372-5.635C173.841,76.969,169.218,81.166,170.303,85.21z"/>
				<path fill="#FFFFFF" d="M181.325,80.999c0.494,2.284-0.137,4.292-2.721,4.949c-2.542,0.666-6.065-0.266-6.559-2.551
					c-0.529-2.275,2.233-4.793,4.779-5.44C179.401,77.278,180.796,78.723,181.325,80.999z"/>
			</g>
			<g id="left_arm_1_">
				<circle fill="#333333" cx="162.302" cy="62.414" r="4.987"/>
				<circle fill="#FFFFFF" cx="161.711" cy="62.147" r="3.39"/>
			</g>
			<g id="face_group_2_">
				<circle fill="#333333" cx="157.179" cy="78.539" r="17.368"/>
				
					<ellipse transform="matrix(0.9973 0.0733 -0.0733 0.9973 5.8921 -11.2795)" fill="#FFFFFF" cx="156.604" cy="74.627" rx="13.068" ry="12.132"/>
			</g>
			<g id="right_arm_1_">
				<circle fill="#333333" cx="162.507" cy="86.137" r="4.987"/>
				<circle fill="#FFFFFF" cx="162.028" cy="85.647" r="3.39"/>
			</g>
			<g id="left_foot_1_">
				<path fill="#333333" d="M169.723,74.889c1.914,4.357,8.781,4.889,12.606,3.114c3.943-1.722,3.374-5.086,1.46-9.444
					c-1.991-4.322-4.132-6.98-8.036-5.172C171.888,65.075,167.731,70.566,169.723,74.889z"/>
				<path fill="#FFFFFF" d="M180.306,69.054c1.092,3.007,0.902,5.815-1.764,6.997c-2.616,1.194-6.705,0.311-7.798-2.696
					c-1.128-2.992,1.304-6.656,3.932-7.823C177.329,64.32,179.178,66.06,180.306,69.054z"/>
			</g>
			<g id="eyes">
				<path fill="#333333" d="M151.275,78.355c-0.295-0.04-0.58-0.171-0.81-0.395c-0.568-0.554-0.58-1.463-0.026-2.031
					c0.519-0.532,3.234-3.196,5.728-3.354c2.493-0.158,5.526,2.136,6.108,2.6c0.621,0.491,0.726,1.395,0.233,2.016
					c-0.493,0.622-1.397,0.727-2.017,0.232c-1.092-0.862-3.103-2.045-4.141-1.981c-1.037,0.066-2.913,1.526-3.854,2.493
					C152.167,78.273,151.711,78.414,151.275,78.355z"/>
				<path fill="#333333" d="M154.957,70.771c-2.283-0.306-4.72-2.151-5.236-2.561c-0.621-0.493-0.726-1.396-0.233-2.018
					c0.493-0.621,1.396-0.725,2.017-0.234c1.094,0.864,3.101,2.048,4.142,1.983c1.04-0.066,2.88-1.498,3.854-2.495
					c0.555-0.566,1.463-0.576,2.03-0.023c0.567,0.554,0.579,1.462,0.026,2.029c-0.519,0.531-3.232,3.196-5.727,3.354
					C155.544,70.826,155.251,70.811,154.957,70.771z"/>
			</g>
		</g>
		<g>
			<g>
				<path fill="#8DA6F0" d="M198.828,65.32c0,0-6.993-2.934-6.921,5.322s-6.274,8.592-14.011,8.592l0,0
					c-7.737,0-11.706-2.271-13.517-9.59l4.619-14.854"/>
				<path fill="#333333" d="M169.773,55.788l-5.3,6.49l-1.621,8.364c0,6.185,5.344,9.59,15.043,9.59
					c9.703,0,15.046-5.575,15.046-9.59s6.921-5.322,6.921-5.322c0-0.552-0.464-0.998-1.035-0.998s-2.854-0.055-2.854,0.497
					c0,0-5.102,0.79-5.102,5.823s-7.056,7.593-12.977,7.593c-5.917,0-12.973-1.317-12.973-7.593l1.162-7.378l5.759-7.477
					c0-0.551-0.463-0.998-1.035-0.998C170.237,54.79,169.773,55.237,169.773,55.788z"/>
			</g>
			<g>
				<g>
					<path fill="#8DA6F0" enable-background="new    " d="M173.522,72.431c0,2.378-1.979,4.307-4.421,4.307
						s-4.421-1.929-4.421-4.307c0-2.381,1.979-7.756,4.421-7.756S173.522,70.05,173.522,72.431z"/>
					<path fill="#333333" d="M164.335,72.431c0,2.559,2.138,4.64,4.767,4.64c2.629,0,4.767-2.081,4.767-4.64
						c0-2.412-2.012-8.09-4.767-8.09C166.349,64.341,164.335,70.019,164.335,72.431z M165.025,72.431
						c0-2.318,1.971-7.424,4.076-7.424s4.076,5.105,4.076,7.424c0,2.192-1.828,3.975-4.076,3.975
						C166.855,76.405,165.025,74.623,165.025,72.431z"/>
				</g>
				<path fill="#CFD4E5" d="M165.435,72.716c0-2.13,2.476-5.956,4.286-5.956c0.173,0,0.34,0.055,0.508,0.138
					c-0.457-0.673-0.971-1.12-1.519-1.12C166.899,65.777,165.435,70.589,165.435,72.716"/>
				<g>
					<path fill="#8DA6F0" enable-background="new    " d="M177.124,72.768c0,3.137-2.049,5.689-4.577,5.689
						c-2.532,0-4.581-2.553-4.581-5.689c0-3.141,2.049-10.233,4.581-10.233C175.075,62.534,177.124,69.627,177.124,72.768z"/>
					<path fill="#333333" d="M167.622,72.768c0,3.32,2.21,6.021,4.926,6.021c2.714,0,4.922-2.701,4.922-6.021
						c0-3.153-2.079-10.565-4.922-10.565C169.703,62.202,167.622,69.614,167.622,72.768z M168.312,72.768
						c0-3.094,2.049-9.901,4.236-9.901c2.186,0,4.232,6.808,4.232,9.901c0,2.952-1.898,5.355-4.232,5.355
						C170.212,78.123,168.312,75.72,168.312,72.768z"/>
				</g>
				<path fill="#CFD4E5" d="M169.201,73.337c0-3.025,2.478-8.46,4.287-8.46c0.172,0,0.342,0.078,0.507,0.193
					c-0.453-0.96-0.971-1.593-1.518-1.593C170.665,63.478,169.201,70.316,169.201,73.337"/>
				<g>
					<path fill="#8DA6F0" enable-background="new    " d="M179.526,74.457c0,2.22-1.475,4.021-3.294,4.021
						c-1.819,0-3.294-1.801-3.294-4.021c0-2.231,1.475-7.25,3.294-7.25C178.052,67.207,179.526,72.226,179.526,74.457z"/>
					<path fill="#333333" d="M172.592,74.457c0,2.4,1.634,4.353,3.64,4.353c2.009,0,3.639-1.952,3.639-4.353
						c0-2.187-1.45-7.582-3.639-7.582C174.043,66.875,172.592,72.271,172.592,74.457z M173.283,74.457
						c0-2.405,1.564-6.918,2.949-6.918c1.388,0,2.949,4.513,2.949,6.918c0,2.034-1.322,3.687-2.949,3.687
						C174.606,78.144,173.283,76.491,173.283,74.457z"/>
				</g>
				<path fill="#CFD4E5" d="M174.323,73.131c-0.167-1.586,1.377-4.215,2.58-4.404c0.114-0.019,0.229,0.008,0.345,0.052
					c-0.353-0.457-0.752-0.819-1.094-0.675C174.962,68.615,174.156,71.55,174.323,73.131"/>
			</g>
		</g>
	</g>
</g>
</svg>
