<?xml version="1.0" encoding="utf-8"?>
<!DOCTYPE svg PUBLIC "-//W3C//DTD SVG 1.1//EN" "http://www.w3.org/Graphics/SVG/1.1/DTD/svg11.dtd">
<svg version="1.1" id="dude" xmlns="http://www.w3.org/2000/svg" xmlns:xlink="http://www.w3.org/1999/xlink" x="0px" y="0px"
	 width="300px" height="150px" viewBox="0 0 300 150" enable-background="new 0 0 300 150" xml:space="preserve">
<g>
<path fill="#FFFFFF" d="M63.03,37.828C62.292,24.545,51.291,14,37.823,14c-13.945,0-25.25,11.305-25.25,25.25
	c0,1.199,0.089,2.375,0.25,3.529c-1.728,1.325-2.848,3.404-2.848,5.751c0,4.004,3.246,7.25,7.25,7.25
	c0.479,0,0.946-0.05,1.399-0.138c0.787,0.92,1.638,1.783,2.547,2.581c-3.184,2.743-5.141,7.7-5.099,11.526
	c-0.062,5.719,4.163,6.863,10.25,6.92c1.978-0.018,3.753-0.156,5.255-0.523c0.117,7.324,5.724,8.812,13.745,8.887
	c8.166-0.076,13.833-1.611,13.751-9.283c0.057-5.211-2.651-11.986-7.039-15.629c3.12-2.129,5.734-4.941,7.636-8.219
	c0.659,0.197,1.356,0.307,2.079,0.307c4.004,0,7.25-3.246,7.25-7.25C69,41.393,66.422,38.434,63.03,37.828z M17.547,52.572
	c-0.445,0-0.875-0.064-1.285-0.176c-2.098-0.565-3.643-2.477-3.643-4.752c0-0.896,0.243-1.734,0.662-2.459
	c0.852-1.475,2.441-2.469,4.267-2.469c2.722,0,4.928,2.205,4.928,4.928C22.476,50.365,20.269,52.572,17.547,52.572z M19.605,66.512
	c-0.013-2.463,1.286-5.251,3.303-6.891c3.062,2.246,6.649,3.814,10.543,4.494c0.244,0.734,0.4,1.479,0.454,2.202
	c-0.709,1.438-1.27,2.946-1.664,4.446c-1.285,1.012-3.206,1.424-5.44,1.377C22.712,72.004,19.585,70.386,19.605,66.512z
	 M56.478,72.432c0.024,5.198-3.996,6.932-9.476,6.578c-5.475-0.425-9.737-2.791-9.708-7.988c-0.012-2.227,0.786-4.619,2.141-6.578
	c1.764-2.551,4.471-4.367,7.568-4.127c1.128,0.072,2.193,0.416,3.175,0.953C53.964,63.343,56.497,68.361,56.478,72.432z M42.073,57
	c-10.494,0-19-8.506-19-19c0-10.493,8.506-19,19-19c10.407,0,18.855,8.369,18.994,18.743c0.001,0.086,0.006,0.171,0.006,0.257
	c0,0.424-0.019,0.842-0.046,1.258c-0.195,2.986-1.081,5.783-2.498,8.234c-0.541,0.936-1.156,1.823-1.843,2.649
	C53.202,54.332,47.949,57,42.073,57z M62.072,49c-0.314,0-0.621-0.032-0.918-0.088c1.234-2.977,1.918-6.238,1.918-9.662
	c0,0,0-0.002,0-0.004C65.314,39.709,67,41.693,67,44.072C67,46.794,64.794,49,62.072,49z"/>
<path fill="#FFFFFF" d="M37.45,29.112c-1.308,0.449-2.002,1.885-1.702,3.234c0.894,3.975,0.894,8.1,0,12.075
	c-0.3,1.351,0.395,2.785,1.702,3.235c1.303,0.449,2.807-0.492,3.176-2.138c1.057-4.698,1.057-9.573,0-14.271
	C40.257,29.603,38.753,28.662,37.45,29.112z"/>
<path fill="#FFFFFF" d="M45.45,29.112c-1.307,0.449-2.002,1.885-1.702,3.234c0.895,3.975,0.895,8.1,0,12.075
	c-0.3,1.351,0.396,2.786,1.702,3.235c1.304,0.449,2.807-0.492,3.176-2.138c1.058-4.698,1.058-9.573,0-14.271
	C48.256,29.603,46.753,28.662,45.45,29.112z"/>
</g>
</svg>
